<svg xmlns="http://www.w3.org/2000/svg" viewBox="0 0 12 12">
    <path fill="#fff" stroke="#000" stroke-opacity=".3" stroke-width="1.5"
        d="M1.8331.73168a1.0532 1.0412 89.996 00-.73193.30748 1.0532 1.0412 89.996 00.000112 1.4898l3.428 3.4706-3.4275 3.4711a1.0532 1.0412 89.996 00.000113 1.4898 1.0532 1.0412 89.996 001.4729-.002l3.4257-3.4692 3.4262 3.4688a1.0532 1.0412 89.996 001.4729.0018 1.0532 1.0412 89.996 00-.000113-1.4899l-3.428-3.4707 3.4275-3.4711a1.0532 1.0412 89.996 00-.000112-1.4898 1.0532 1.0412 89.996 00-1.4729.00193l-3.4257 3.4693-3.4262-3.4688A1.0532 1.0412 89.996 001.8331.7316z"
        paint-order="stroke fill markers" />
</svg>