<svg xmlns="http://www.w3.org/2000/svg" fill="none" viewBox="0 0 434 109">
  <path fill="#162843" d="M58.774 11.263c3.223.214 6.415.767 9.523 1.648a63.572 63.572 0 0 0 4.148-9.77c1.492-4.579 8.342-3.983 9.02.787.374 2.488.527 5.003.457 7.518 18.469-3.837 32.231-7.07 31.728-.073l-.064.256c-4.139 11.363-12.389 20.465-22.617 24.952-2.271 1.025-3.141 2.417-3.114 4.953.129 9.935 0 19.605 0 29.43a76.832 76.832 0 0 0-61.276 0c0-9.825-.082-19.495 0-29.43 0-2.536-.842-3.928-3.113-4.953C13.238 32.094 4.988 22.992.858 11.629l-.073-.256c-.494-6.996 13.268-3.764 31.728.073-.07-2.515.083-5.03.458-7.518.677-4.77 7.526-5.393 9.028-.787a61.828 61.828 0 0 0 4.148 9.77 46.052 46.052 0 0 1 9.523-1.648h3.104Z"/>
  <path fill="#ffffff" d="M57.547 14.65c4.201.191 8.354.978 12.334 2.335 2.437-4 4.389-8.275 5.814-12.736a1.163 1.163 0 0 1 1.264-.834 1.182 1.182 0 0 1 1.108 1.044c.516 3.69.568 7.431.156 11.135 2.207-.33 2.747-.412 5.659-1.063 18.533-4.074 24.613-4.248 26.27-3.534-3.873 10.237-11.354 18.396-20.584 22.443a8.086 8.086 0 0 0-5.146 8.14c.11 8.241.055 16.308 0 24.42a77.986 77.986 0 0 0-54.409 0c0-8.112-.055-16.188 0-24.42a8.076 8.076 0 0 0-5.146-8.14c-9.23-4.047-16.702-12.206-20.575-22.443 1.658-.714 7.728-.54 26.261 3.534 2.903.65 3.462.733 5.66 1.063a45.563 45.563 0 0 1 .155-11.135 1.227 1.227 0 0 1 2.38-.21 59.013 59.013 0 0 0 5.806 12.736 44.565 44.565 0 0 1 12.343-2.334h.65Z"/>
  <path fill="#FFD700" d="M41.89 46.25a5.878 5.878 0 0 1-5.843-5.888 5.567 5.567 0 0 1 1.768-3.937 5.842 5.842 0 0 1 4.065-1.62c2.322.156 4.597.723 6.721 1.675 2.372 1.035 4.35 2.463 4.34 4.047-.009 1.584-1.987 3.004-4.367 4.03a19.916 19.916 0 0 1-6.685 1.693Z"/>
  <path fill="#162843" d="M41.834 47.816a7.453 7.453 0 0 1-7.325-7.49 7.122 7.122 0 0 1 2.252-5.027 7.398 7.398 0 0 1 5.128-2.06c2.531.171 5.011.791 7.325 1.83 3.462 1.512 5.293 3.407 5.284 5.495-.01 2.087-1.831 3.946-5.31 5.494a21.647 21.647 0 0 1-7.326 1.831h-.074l.046-.073Zm0-11.455c-1.11 0-2.176.43-2.976 1.2a4.057 4.057 0 0 0-1.281 2.838 4.33 4.33 0 0 0 4.267 4.294c2.1-.174 4.156-.704 6.08-1.565 2.517-1.09 3.433-2.161 3.433-2.61 0-.449-.916-1.51-3.415-2.6a18.414 18.414 0 0 0-6.09-1.557h-.018ZM14.154 16.326l14.312 3.315a.733.733 0 0 1 .119 1.392c-2.848 1.172-8.003 2.866-10.466 1.034-3.525-2.637-4.633-4.102-4.853-4.898a.715.715 0 0 1 .888-.843Z"/>
  <path fill="#FFD700" d="M72.637 46.25a5.897 5.897 0 0 0 5.851-5.888 5.64 5.64 0 0 0-1.767-3.937 5.86 5.86 0 0 0-4.075-1.62 19.588 19.588 0 0 0-6.711 1.675c-2.372 1.035-4.359 2.463-4.35 4.047.01 1.584 1.996 3.004 4.368 4.03a19.917 19.917 0 0 0 6.684 1.693Z"/>
  <path fill="#162843" d="M72.692 47.816a7.418 7.418 0 0 0 5.201-2.207 7.326 7.326 0 0 0 2.152-5.283 7.087 7.087 0 0 0-2.253-5.027 7.398 7.398 0 0 0-5.127-2.06c-2.531.17-5.012.79-7.326 1.83-3.47 1.512-5.292 3.407-5.292 5.495 0 2.087 1.831 3.946 5.31 5.494a21.692 21.692 0 0 0 7.326 1.831h.064l-.055-.073Zm0-11.455a4.268 4.268 0 0 1 2.976 1.2 4.02 4.02 0 0 1 1.282 2.838 4.196 4.196 0 0 1-1.255 3.012 4.278 4.278 0 0 1-3.012 1.282 18.663 18.663 0 0 1-6.08-1.565c-2.509-1.09-3.425-2.161-3.434-2.61-.009-.449.916-1.51 3.416-2.6a18.394 18.394 0 0 1 6.098-1.557h.01ZM100.382 16.326 86.07 19.641a.733.733 0 0 0-.12 1.392c2.849 1.172 7.995 2.866 10.458 1.034 3.534-2.637 4.633-4.102 4.862-4.898a.722.722 0 0 0-.888-.843Z"/>
  <path fill="#CBE5EF" d="M91.005 73.244c-5.869-6.355-13.56-9.22-21.765-10.842a49.725 49.725 0 0 0-11.693-1.2h-.558a49.66 49.66 0 0 0-11.693 1.2C37.055 64.023 29.39 66.89 23.52 73.244c-4.752 5.146-6.089 11.574-3.086 16.949a23.945 23.945 0 0 0 8.388 9.156c6.73 4.038 13.991 5.998 21.783 6.95a48.34 48.34 0 0 0 6.41.339h.559a48.342 48.342 0 0 0 6.41-.339c7.8-.916 15.053-2.912 21.783-6.95a23.945 23.945 0 0 0 8.387-9.156c2.949-5.375 1.575-11.803-3.15-16.95Z"/>
  <path fill="#ffffff" d="M87.755 72.456c-5.274-4.807-12.179-6.968-19.55-8.24A52.773 52.773 0 0 0 57.53 63.3h-.522a52.805 52.805 0 0 0-10.686.915c-7.325 1.236-14.275 3.397-19.55 8.241-4.266 3.901-5.493 8.763-2.746 12.82a19.641 19.641 0 0 0 7.536 6.968c6.034 3.058 12.553 4.578 19.549 5.256 2.026.203 4.062.289 6.098.256h.156a52.528 52.528 0 0 0 6.09-.256c6.995-.715 13.514-2.198 19.558-5.256a19.778 19.778 0 0 0 7.535-6.968c2.674-4.057 1.52-8.919-2.792-12.82Z"/>
  <path fill="#162843" d="M42.356 86.063c-3.333 1.63-6.41 0-7.032-3.663-.64-3.955 4.679-13.35 5.897-6.244 1.218 7.105 6.675-2.83 6.712 1.62a9.716 9.716 0 0 1-5.577 8.287Z"/>
  <path fill="#162843" d="M92.388 71.971c-6.996-7.573-16.354-10.136-22.79-11.41h-.138a49.45 49.45 0 0 0-10.246-1.19h-3.901a49.45 49.45 0 0 0-10.246 1.19h-.138c-6.41 1.274-15.786 3.837-22.781 11.41-5.403 5.842-6.685 13.176-3.352 19.137a25.753 25.753 0 0 0 9.065 9.899c6.355 3.818 13.515 6.107 22.516 7.206 2.009.241 4.03.36 6.053.357h1.666a50.176 50.176 0 0 0 6.053-.357c9.01-1.099 16.161-3.388 22.516-7.206a25.642 25.642 0 0 0 9.065-9.899c3.342-5.96 2.051-13.295-3.342-19.137Zm.073 17.306a21.976 21.976 0 0 1-7.719 8.497c-5.888 3.544-12.572 5.668-21.06 6.703-2.042.24-4.097.347-6.153.32h-.559a47.384 47.384 0 0 1-6.153-.32c-8.47-1.035-15.154-3.159-21.06-6.703a21.976 21.976 0 0 1-7.72-8.506c-2.554-4.579-1.5-10.072 2.821-14.76 4.825-5.22 11.226-8.388 20.758-10.274h.147a47.56 47.56 0 0 1 11.39-1.145h.147c3.832-.079 7.66.306 11.4 1.145h.137c9.532 1.886 15.933 5.054 20.758 10.273 4.359 4.689 5.412 10.2 2.866 14.77Z"/>
  <path fill="#162843" d="M72.17 86.063c3.333 1.63 6.41 0 7.032-3.663.65-3.955-4.67-13.35-5.896-6.244-1.227 7.105-6.676-2.83-6.712 1.62a9.733 9.733 0 0 0 5.576 8.287Z"/>
  <path fill="#162843" d="m171.236 36.8-11.263 13.836c-2.314-2.442-4.34-4.007-6.08-4.697a6.995 6.995 0 0 0-4.505-.486 6.055 6.055 0 0 0-3.187 2.253 18.06 18.06 0 0 0-2.06 3.47 26.928 26.928 0 0 0-1.41 4.579c0 .082.092.64.284 1.675a11.801 11.801 0 0 0 1.355 3.443 6.41 6.41 0 0 0 3.022 2.747c1.306.61 3.089.525 5.347-.256 2.259-.782 5.036-2.69 8.333-5.723l12.544 13.387a12.577 12.577 0 0 1-3.342 3.79 29.7 29.7 0 0 1-5.668 3.544 39.994 39.994 0 0 1-7.206 2.665 35.797 35.797 0 0 1-8.012 1.227 27.684 27.684 0 0 1-8.04-.87 20.221 20.221 0 0 1-7.325-3.608 24.99 24.99 0 0 1-7.142-8.24 25.32 25.32 0 0 1-2.747-9.267 27.946 27.946 0 0 1 .742-9.523 40.999 40.999 0 0 1 3.342-8.946 37.132 37.132 0 0 1 5.082-7.527 30.096 30.096 0 0 1 5.952-5.347 25.123 25.123 0 0 1 4.825-2.088 27.94 27.94 0 0 1 5.311-.961 19.884 19.884 0 0 1 6.629.576 26.141 26.141 0 0 1 7.463 3.251 32.05 32.05 0 0 1 7.756 7.096Z"/>
  <path fill="#162843" d="M213.255 58.035a19.825 19.825 0 0 1-.421 8.24 18.526 18.526 0 0 1-3.406 6.758 18.934 18.934 0 0 1-5.86 4.826 22.792 22.792 0 0 1-7.811 2.481 24 24 0 0 1-8.241-.265 18.888 18.888 0 0 1-7.014-2.985 18.214 18.214 0 0 1-5.146-5.54 19.669 19.669 0 0 1-2.637-7.82 19.994 19.994 0 0 1 .412-8.24 19.034 19.034 0 0 1 3.416-6.786 18.839 18.839 0 0 1 5.851-4.862 22.632 22.632 0 0 1 7.819-2.472 23.807 23.807 0 0 1 8.241.256 19.051 19.051 0 0 1 6.987 2.994 18.006 18.006 0 0 1 5.146 5.567 20.775 20.775 0 0 1 2.664 7.848Zm-27.03 5.494a5.607 5.607 0 0 0 3.48 3.287 7.618 7.618 0 0 0 5.402-.522 7.757 7.757 0 0 0 4.084-3.507 5.427 5.427 0 0 0 .101-4.725 5.741 5.741 0 0 0-3.471-3.25 7.324 7.324 0 0 0-5.347.485 7.735 7.735 0 0 0-4.148 3.534 5.369 5.369 0 0 0-.101 4.67v.028ZM229.536 59.124l3.662-16.665 10.073-.769 3.8 17.627h.128l3.791-18.204 14.028 1.154-9.908 37.13-13.323 1.035-3.598-17.956h-.128l-3.663 16.921-13.195 1.099-10.072-38.23 14.413-1.153 3.8 18.011h.192Z"/>
  <path fill="#162843" d="M290.766 47.862a59.096 59.096 0 0 1 4.093 2.06 17.689 17.689 0 0 1 3.791 2.838 13.653 13.653 0 0 1 4.084 9.587 16.76 16.76 0 0 1-1.474 8.077 16.489 16.489 0 0 1-4.734 5.915 22.249 22.249 0 0 1-7.326 3.736 35.454 35.454 0 0 1-9.156 1.51 29.574 29.574 0 0 1-4.633-.228 38.198 38.198 0 0 1-4.698-.861 44.42 44.42 0 0 1-4.505-1.392 49.397 49.397 0 0 1-4.12-1.703l4.889-13.735a63.1 63.1 0 0 1 2.317.998c.943.429 1.909.805 2.893 1.126a40.23 40.23 0 0 0 3.224.916c1.074.25 2.176.357 3.278.32a11.785 11.785 0 0 0 4.019-.842 2.335 2.335 0 0 0 1.585-2.38 1.976 1.976 0 0 0-1.127-1.667 21.245 21.245 0 0 0-2.545-1.163c-.641-.174-1.493-.403-2.546-.705a28.65 28.65 0 0 1-3.379-1.227 31.763 31.763 0 0 1-3.662-1.831 16.524 16.524 0 0 1-3.342-2.647 13.456 13.456 0 0 1-2.509-3.57 10.99 10.99 0 0 1-1.063-4.661 17.128 17.128 0 0 1 1.548-8.013 17.941 17.941 0 0 1 4.578-5.988 20.38 20.38 0 0 1 6.749-3.79 29.733 29.733 0 0 1 8.241-1.52 40.64 40.64 0 0 1 8.039.42 33.214 33.214 0 0 1 7.472 2.033l-3.8 14.861a73.282 73.282 0 0 0-4.697-1.831 25.65 25.65 0 0 0-4.954-1.126c-.747-.1-1.5-.143-2.253-.128a12.513 12.513 0 0 0-2.673.283 6.559 6.559 0 0 0-2.28.916 2.204 2.204 0 0 0-1.035 1.831.916.916 0 0 0 .485.806c.363.208.755.36 1.163.449.456.11.918.195 1.383.256l1.153.165c1.246.256 2.573.559 3.993.916 1.206.218 2.39.55 3.534.989Z"/>
  <path fill="#162843" d="m318.236 59.124 3.663-16.665 10.072-.769 3.8 17.627h.128l3.791-18.204 14.028 1.154-9.843 37.13-13.323 1.035-3.599-17.956h-.128l-3.663 16.921-13.185 1.099-10.073-38.23 14.413-1.153 3.8 18.011h.119ZM374.769 75.799h-.128a9.103 9.103 0 0 1-4.404 3.406 16.866 16.866 0 0 1-5.76.915 13.152 13.152 0 0 1-4.89-.915 12.136 12.136 0 0 1-4.056-2.674 13.075 13.075 0 0 1-2.747-4.185 13.954 13.954 0 0 1-1.026-5.493 11.432 11.432 0 0 1 1.026-4.863 12.262 12.262 0 0 1 2.802-3.864 12.985 12.985 0 0 1 4.175-2.573 14.432 14.432 0 0 1 5.247-.915 12.716 12.716 0 0 1 4.99.87 16.016 16.016 0 0 1 3.443 1.968v-1.932c0-1.978-.644-3.287-1.932-3.928a11.29 11.29 0 0 0-5.018-.962 22.891 22.891 0 0 0-5.274.577c-1.63.385-3.284.837-4.963 1.355l2.518-10.237a37.323 37.323 0 0 1 6.41-1.254c2.266-.24 4.543-.36 6.822-.357a25.82 25.82 0 0 1 6.18.742 14.91 14.91 0 0 1 5.311 2.417 12.186 12.186 0 0 1 3.663 4.313 13.612 13.612 0 0 1 1.282 6.492l-.705 24.329-12.938 1.09-.028-4.322Zm-8.168-11.904a7.11 7.11 0 0 0-3.607 1.52 2.89 2.89 0 0 0-1.218 2.664 2.94 2.94 0 0 0 1.831 2.226 7.078 7.078 0 0 0 4.084.347 6.555 6.555 0 0 0 3.736-1.602 2.88 2.88 0 0 0 .961-2.646 3.043 3.043 0 0 0-1.639-2.088 6.17 6.17 0 0 0-4.148-.421ZM406.497 41.69v4.377a14.187 14.187 0 0 1 4.276-3.315 12.26 12.26 0 0 1 5.311-1.062 14.72 14.72 0 0 1 7.05 1.703 17.394 17.394 0 0 1 5.403 4.469 20.924 20.924 0 0 1 3.443 6.281 21.447 21.447 0 0 1 1.227 7.106 21.69 21.69 0 0 1-1.292 7.435 20.368 20.368 0 0 1-3.662 6.336 18.03 18.03 0 0 1-5.632 4.441 15.562 15.562 0 0 1-7.206 1.676 17.491 17.491 0 0 1-4.276-.577 9.102 9.102 0 0 1-4.093-2.317l.394 12.82-13.58 1.162-.714-49.363 13.351-1.172Zm8.799 24.952a7.327 7.327 0 0 0 3.892-3.8 5.438 5.438 0 0 0-.028-4.57 5.43 5.43 0 0 0-3.507-2.93 7.445 7.445 0 0 0-5.375.614 7.638 7.638 0 0 0-3.992 3.827 5.235 5.235 0 0 0 .064 4.579c.329.71.814 1.336 1.419 1.831a5.5 5.5 0 0 0 2.088 1.062c.84.215 1.711.28 2.573.193a8.494 8.494 0 0 0 2.866-.806Z"/>
</svg>