<svg fill="none" xmlns="http://www.w3.org/2000/svg" viewBox="0 0 16 23" class="css-1rzhlzw"><path d="M3.87 14.36h0A8.37 8.37 0 01.5 7.77C.5 3.77 3.85.5 8 .5a7.4 7.4 0 017.5 7.27 8.5 8.5 0 01-3.35 6.61c-.54.38-.65.98-.65 1.46v.66h-7v-.66c0-.45-.06-1.08-.63-1.48z" fill="transparent" stroke="#737373" stroke-width="1.2"></path><path d="M4.5 18.61V16.5h7v2.11c0 1.6-1.27 2.89-2.81 2.89h0-.01 0-.01 0-.01 0-.01 0-.01 0-.01 0-.01 0-.01 0-.01 0-.01 0-.01 0-.01 0-.01 0-.01 0-.01 0-.01 0-.01 0-.01 0-.01 0-.01 0-.01 0-.01 0-.01 0-.01 0-.01 0-.01 0-.01 0-.01 0-.01 0-.01 0-.01 0-.01 0-.01 0-.01 0-.01 0-.01 0-.01 0-.01 0-.01 0-.01 0-.01 0-.01 0-.01 0-.01 0-.01 0-.01 0-.01 0-.01 0-.01 0-.01 0-.01 0-.01 0-.01 0-.01 0-.01 0-.01 0-.01 0-.01 0-.01 0-.01 0-.01 0-.01 0-.01 0-.01 0-.01 0-.01 0-.01 0H8h0H8h0-.01 0-.01 0-.01 0-.01 0-.01 0-.01 0-.01 0-.01 0-.01 0-.01 0-.01 0-.01 0-.01 0-.01 0-.01 0-.01 0-.01 0-.01 0-.01 0-.01 0-.01 0-.01 0-.01 0-.01 0-.01 0-.01 0-.01 0-.01 0-.01 0-.01 0-.01 0-.01 0-.01 0-.01 0-.01 0-.01 0-.01 0-.01 0-.01 0-.01 0-.01 0-.01 0-.01 0-.01 0-.01 0-.01 0-.01 0-.01 0-.01 0-.01 0-.01 0-.01 0-.01 0-.01 0-.01 0-.01 0-.01 0-.01 0-.01 0-.01 0-.01 0-.01 0-.01 0-.01 0-.01 0-.01 0-.01 0-.01 0a2.85 2.85 0 01-2.82-2.89z" fill="transparent" stroke="#737373" stroke-width="1.2"></path></svg>